<svg id="图层_1" data-name="图层 1" xmlns="http://www.w3.org/2000/svg" xmlns:xlink="http://www.w3.org/1999/xlink" viewBox="0 0 392.81 392.81"><defs><style>.cls-1{fill:none;}.cls-2{fill:#fff;}.cls-3{clip-path:url(#clip-path);}.cls-4{fill:url(#New_Gradient_Swatch);}.cls-5{clip-path:url(#clip-path-2);}.cls-6{fill:url(#New_Gradient_Swatch-3);}</style><clipPath id="clip-path" transform="translate(-101.3 -224.66)"><rect class="cls-1" x="176.01" y="350.36" width="31" height="148" rx="10"/></clipPath><linearGradient id="New_Gradient_Swatch" x1="66.73" y1="199.97" x2="328.35" y2="199.97" gradientUnits="userSpaceOnUse"><stop offset="0" stop-color="#f1ab3f"/><stop offset="1" stop-color="#dc2873"/></linearGradient><clipPath id="clip-path-2" transform="translate(-101.3 -224.66)"><path class="cls-1" d="M416.14,349.69,314.49,291a11.34,11.34,0,0,0-17,9.83V548.69a11.34,11.34,0,0,0,17,9.83l101.65-58.69a11.32,11.32,0,0,0,5.68-9.83V359.52A11.34,11.34,0,0,0,416.14,349.69ZM375,466.36a10,10,0,0,1-10,10H354a10,10,0,0,1-10-10v-84a10,10,0,0,1,10-10h11a10,10,0,0,1,10,10Z"/></clipPath><linearGradient id="New_Gradient_Swatch-3" x1="146.2" y1="421.02" x2="449.95" y2="421.02" xlink:href="#New_Gradient_Swatch"/></defs><circle class="cls-2" cx="196.4" cy="196.4" r="196.4"/><g class="cls-3"><polygon class="cls-4" points="197.54 48.92 66.73 124.45 66.73 275.49 197.54 351.01 328.35 275.49 328.35 124.45 197.54 48.92"/></g><g class="cls-5"><polygon class="cls-4" points="197.54 48.92 66.73 124.45 66.73 275.49 197.54 351.01 328.35 275.49 328.35 124.45 197.54 48.92"/></g><path class="cls-6" d="M452,328.64l-96.1-55.48L306,244.36c-3.68-2.13-7-4.91-11.4-2.86-3.84,1.79-7.49,4.33-11.16,6.44l-117.75,68-18.44,10.64c-3.44,2-6.36,3.41-6.54,8.07-.6,14.95,0,30.05,0,45V508.32a6,6,0,0,0,3,5.18l51.7,29.85L277,590.49c5.78,3.34,11.55,7.41,17.63,10.18,5.47,2.49,12.48-3.56,17.06-6.2l77.61-44.81c20.49-11.83,41.42-23.12,61.56-35.54.35-.22.72-.41,1.08-.62a6.05,6.05,0,0,0,0-10.36L423.64,487.2c-6.74-3.79-12.8,6.57-6.06,10.36l28.33,15.94V503.14L395,532.51l-81.6,47.11-18.64,10.77h6.06L250,561l-81.6-47.11-18.64-10.76,3,5.18V333.82l-3,5.18,50.88-29.38,81.59-47.11,18.65-10.76h-6.06l50.88,29.37,81.6,47.12L445.91,339c6.7,3.87,12.75-6.5,6.06-10.36Z" transform="translate(-101.3 -224.66)"/></svg>